<svg xmlns="http://www.w3.org/2000/svg" viewBox="0 0 100 100">
  <!-- Background circle with gradient -->
  <defs>
    <linearGradient id="bg" x1="0%" y1="0%" x2="100%" y2="100%">
      <stop offset="0%" style="stop-color:#1e40af;stop-opacity:1" />
      <stop offset="100%" style="stop-color:#3b82f6;stop-opacity:1" />
    </linearGradient>
  </defs>
  
  <!-- Main circle background -->
  <circle cx="50" cy="50" r="48" fill="url(#bg)"/>
  
  <!-- Ice/snow shape (simplified Greenland outline) -->
  <path d="M 30 25 Q 20 30 20 40 L 20 55 Q 20 65 30 70 L 40 72 Q 50 73 60 70 L 70 65 Q 80 60 80 50 L 80 35 Q 80 25 70 22 L 60 20 Q 50 18 40 20 Z" 
        fill="white" opacity="0.9"/>
  
  <!-- Number "51" -->
  <text x="50" y="58" font-family="Arial, sans-serif" font-size="24" font-weight="bold" 
        fill="#1e40af" text-anchor="middle">51</text>
  
  <!-- Small star accent -->
  <polygon points="85,15 87,20 92,20 88,23 90,28 85,25 80,28 82,23 78,20 83,20" 
           fill="#fbbf24" opacity="0.9"/>
</svg>
